<svg width="458" height="485" viewBox="0 0 458 485" fill="none" xmlns="http://www.w3.org/2000/svg">
<path d="M456.123 451.147H0V452.209H456.123V451.147Z" fill="white" fill-opacity="0.59"/>
<path d="M456.123 420.748H0V421.809H456.123V420.748Z" fill="white" fill-opacity="0.59"/>
<path d="M456.123 390.348H0V391.41H456.123V390.348Z" fill="white" fill-opacity="0.59"/>
<path d="M456.123 359.949H0V361.01H456.123V359.949Z" fill="white" fill-opacity="0.59"/>
<path d="M456.123 329.549H0V330.611H456.123V329.549Z" fill="white" fill-opacity="0.59"/>
<path d="M456.123 299.124H0V300.185H456.123V299.124Z" fill="white" fill-opacity="0.59"/>
<path d="M456.123 268.724H0V269.786H456.123V268.724Z" fill="white" fill-opacity="0.59"/>
<path d="M456.123 238.296H0V239.358H456.123V238.296Z" fill="white" fill-opacity="0.59"/>
<path d="M456.123 207.928H0V208.989H456.123V207.928Z" fill="white" fill-opacity="0.59"/>
<path d="M456.123 177.502H0V178.564H456.123V177.502Z" fill="white" fill-opacity="0.59"/>
<path d="M456.123 116.702H0V117.764H456.123V116.702Z" fill="white" fill-opacity="0.59"/>
<path d="M456.123 147.103H0V148.164H456.123V147.103Z" fill="white" fill-opacity="0.59"/>
<path d="M456.123 86.3027H0V87.3643H456.123V86.3027Z" fill="white" fill-opacity="0.59"/>
<path d="M456.123 55.9043H0V56.9659H456.123V55.9043Z" fill="white" fill-opacity="0.59"/>
<path d="M456.123 25.4785H0V26.5401H456.123V25.4785Z" fill="white" fill-opacity="0.59"/>
<path d="M427.251 0H426.285V483.151H427.251V0Z" fill="white" fill-opacity="0.59"/>
<path d="M398.863 0H397.897V483.151H398.863V0Z" fill="white" fill-opacity="0.59"/>
<path d="M370.474 0H369.508V483.151H370.474V0Z" fill="white" fill-opacity="0.59"/>
<path d="M342.086 0H341.12V483.151H342.086V0Z" fill="white" fill-opacity="0.59"/>
<path d="M313.697 0H312.731V483.151H313.697V0Z" fill="white" fill-opacity="0.59"/>
<path d="M285.309 0H284.343V483.151H285.309V0Z" fill="white" fill-opacity="0.59"/>
<path d="M256.92 0H255.954V483.151H256.92V0Z" fill="white" fill-opacity="0.59"/>
<path d="M228.532 0H227.566V483.151H228.532V0Z" fill="white" fill-opacity="0.59"/>
<path d="M200.168 0H199.202V483.151H200.168V0Z" fill="white" fill-opacity="0.59"/>
<path d="M171.779 0H170.813V483.151H171.779V0Z" fill="white" fill-opacity="0.59"/>
<path d="M143.391 0H142.425V483.151H143.391V0Z" fill="white" fill-opacity="0.59"/>
<path d="M115.003 0H114.037V483.151H115.003V0Z" fill="white" fill-opacity="0.59"/>
<path d="M86.6144 0H85.6479V483.151H86.6144V0Z" fill="white" fill-opacity="0.59"/>
<path d="M58.2265 0H57.2601V483.151H58.2265V0Z" fill="white" fill-opacity="0.59"/>
<path d="M29.8373 0H28.8708V483.151H29.8373V0Z" fill="white" fill-opacity="0.59"/>
<rect width="458" height="484.279" fill="url(#paint0_radial_119_4443)"/>
<defs>
<radialGradient id="paint0_radial_119_4443" cx="0" cy="0" r="1" gradientUnits="userSpaceOnUse" gradientTransform="translate(229 242.139) rotate(90) scale(242.139 229)">
<stop stop-color="#0E0E0D" stop-opacity="0.57"/>
<stop offset="1" stop-color="#0E0E0D"/>
</radialGradient>
</defs>
</svg>
